<?xml version="1.0" standalone="no"?>
<!DOCTYPE svg PUBLIC "-//W3C//DTD SVG 20010904//EN"
 "http://www.w3.org/TR/2001/REC-SVG-20010904/DTD/svg10.dtd">
<svg version="1.0" xmlns="http://www.w3.org/2000/svg"
 width="200.000000pt" height="200.000000pt" viewBox="0 0 200.000000 200.000000"
 preserveAspectRatio="xMidYMid meet">

<g transform="translate(0.000000,200.000000) scale(0.100000,-0.100000)"
fill="#000000" stroke="none">
<path d="M953 1940 c-20 -8 -23 -17 -23 -67 0 -32 -4 -64 -9 -72 -9 -13 -107
-56 -158 -68 -15 -4 -34 6 -67 37 l-46 42 -27 -17 c-61 -39 -122 -97 -137
-130 -17 -35 -17 -35 16 -75 18 -22 36 -40 41 -40 15 0 6 -51 -22 -117 l-29
-68 -60 -5 c-88 -7 -92 -13 -92 -139 0 -70 4 -111 12 -119 7 -7 39 -12 73 -12
l60 0 35 -82 c19 -46 38 -82 43 -80 4 1 61 2 128 2 l120 0 -15 22 c-30 42 -16
91 32 117 33 18 71 -5 99 -59 23 -44 56 -80 74 -80 5 0 9 52 9 115 l0 115 -49
24 c-109 56 -151 116 -151 218 1 110 53 185 152 219 48 16 54 21 58 51 5 30 8
33 40 33 31 0 36 -4 46 -35 8 -22 19 -36 35 -41 91 -24 170 -114 172 -197 2
-82 -120 -84 -138 -2 -8 36 -41 80 -61 80 -11 0 -14 -22 -14 -114 l0 -115 53
-15 c61 -18 110 -52 145 -100 30 -43 43 -166 22 -216 -16 -38 -81 -97 -133
-120 l-41 -18 35 -6 c19 -3 86 -13 149 -21 63 -8 140 -22 170 -31 100 -28 95
-29 119 9 29 47 27 57 -20 102 -45 44 -45 47 -7 137 36 83 42 88 109 88 74 0
79 8 79 138 0 118 -5 125 -93 132 l-61 5 -28 69 c-15 38 -28 78 -28 89 0 11
16 37 35 58 19 22 35 49 35 60 0 25 -127 153 -160 162 -17 4 -33 -5 -66 -40
-33 -33 -49 -43 -62 -38 -9 4 -42 17 -73 29 -82 31 -89 39 -89 107 0 79 -16
89 -130 88 -47 0 -95 -4 -107 -9z"/>
<path d="M978 1491 c-21 -24 -28 -43 -28 -75 0 -33 6 -50 28 -72 l27 -29 3 53
c2 28 2 75 0 104 l-3 52 -27 -33z"/>
<path d="M1100 1025 c0 -116 6 -125 56 -82 20 18 28 35 32 75 4 47 2 54 -26
82 -54 54 -62 44 -62 -75z"/>
<path d="M36 894 c-3 -9 -6 -149 -6 -313 0 -218 3 -300 12 -309 16 -16 180
-16 196 0 9 9 12 94 12 319 0 271 -2 308 -16 313 -9 3 -55 6 -104 6 -71 0 -89
-3 -94 -16z"/>
<path d="M552 869 c-78 -10 -224 -47 -237 -60 -6 -6 -11 -97 -13 -218 -4 -237
-4 -234 75 -244 32 -4 148 -51 348 -143 203 -92 315 -138 347 -142 28 -2 145
11 294 34 l248 38 95 57 c108 64 230 159 248 192 17 30 16 56 -2 63 -13 5 -13
10 1 36 34 66 -8 104 -107 95 -65 -6 -101 -22 -164 -77 -72 -62 -158 -85 -320
-85 -116 0 -138 3 -210 28 -44 16 -84 33 -90 39 -10 11 323 4 432 -8 50 -6 54
-5 87 28 37 37 56 99 39 127 -33 54 -164 95 -352 111 -114 9 -133 14 -240 59
-64 27 -144 57 -177 65 -66 17 -195 19 -302 5z"/>
</g>
</svg>
